<?xml version="1.0" standalone="no"?>
<svg xmlns="http://www.w3.org/2000/svg" height="1220pt" preserveAspectRatio="xMidYMid meet" viewBox="0 0 1920 1220" width="1920pt">
  <path d="m11220 12194c-215-25-252-37-277-88-14-30-14-42-5-75 17-55 51-74 121-68 31 2 120 10 199 18 319 29 668-39 977-190 558-274 969-792 1122-1416 40-163 48-182 85-201 63-33 141 3 154 70 7 38-29 197-77 346-270 831-947 1436-1769 1581-110 20-437 34-530 23zm-495-410c-430-58-849-240-1165-507-144-121-189-254-136-406 47-136 176-224 327-223 85 0 155 30 248 106 206 167 442 278 722 337 152 32 437 33 597 1 226-45 409-121 598-247 347-231 595-600 686-1019 19-86 22-132 22-316 1-187-2-228-22-320-47-212-128-407-239-572-240-356-579-587-1015-691l-93-22-4815-5-4815-5-58-23c-74-30-150-104-185-179-38-82-38-194 0-274 36-79 89-133 166-171l67-33h4805c4628 0 4809 1 4925 19 413 63 795 229 1110 480 96 77 274 254 352 351 494 611 640 1437 387 2185-43 126-150 353-223 469-363 585-972 975-1664 1066-145 18-442 18-582-1zm5665-511c-536-36-1019-212-1440-526-123-92-200-170-230-232-20-42-25-65-25-140 0-106 19-157 86-230 77-84 180-124 287-111 77 9 134 37 219 107 529 437 1254 566 1908 339 179-62 391-177 550-299 85-64 256-232 328-321 389-482 529-1125 376-1725-34-132-67-223-134-362-184-383-479-691-855-891-184-99-399-170-630-209-100-17-399-18-5760-23l-5655-5-56-28c-172-84-240-288-154-463 30-61 83-112 157-151l53-28 5615-3c4094-2 5649 0 5740 8 610 55 1169 310 1607 734 156 150 260 274 368 436 217 324 347 656 417 1056 20 114 23 163 23 419 0 307-12 414-66 629-124 492-371 923-730 1272-138 134-236 212-394 317-135 89-390 218-539 272-332 122-731 181-1066 158zm110-922c-63-10-89-27-106-68-18-41-6-89 27-119 19-17 40-19 208-20 262-1 411-34 625-140 291-144 555-415 701-719 64-132 121-311 145-449 11-64 24-126 30-136 28-52 117-68 159-29 40 37 44 65 26 174-89 533-387 995-818 1268-157 100-386 190-562 222-99 18-364 28-435 16zm-16262-3715c-100-36-167-97-210-193-31-67-31-198-1-265 30-66 105-143 172-175l56-28h1915 1915l58 29c165 84 237 278 163 443-37 81-111 152-189 181l-58 22h-1892c-1531-1-1899-3-1929-14zm2271-1242c-295-90-320-497-40-636l46-23 4940-5c4601-5 4946-6 5030-22 357-68 646-219 895-468 246-246 409-551 486-909 35-160 44-453 20-621-42-289-136-535-295-771-245-364-593-606-1017-705-111-26-134-28-339-29-194 0-232 3-323 23-274 62-523 183-727 356-111 94-168 120-270 120-71 1-88-3-147-32-77-38-130-92-167-171-37-80-37-191 1-273 59-127 320-329 613-474 178-88 276-124 450-169 635-163 1309-45 1858 327 255 173 521 453 689 725 397 641 483 1443 233 2162-209 601-644 1097-1200 1371-223 110-414 172-670 217-95 17-372 18-5060 20-4280 1-4966 0-5006-13zm12509-2491c-15-9-31-26-37-37-5-12-15-100-21-196-24-376-100-669-260-995-137-281-300-505-526-725-378-367-834-603-1344-695-144-26-324-45-428-45-35 0-75-6-91-14-48-25-65-91-36-145 24-47 59-55 223-48 699 31 1355 322 1856 822 500 501 791 1161 821 1870 6 130 5 142-14 173-33 52-92 66-143 35z" transform="matrix(.1 0 0 -.1 0 1220)" fill="currentColor" stroke="none" stroke-width="2" vector-effect="non-scaling-stroke"/>
</svg>
